<svg width="23" height="24" viewBox="0 0 23 24" fill="none" xmlns="http://www.w3.org/2000/svg">
<path id="Vector" d="M13.9381 5.5C14.9149 5.69057 15.8125 6.16826 16.5162 6.87194C17.2199 7.57561 17.6976 8.47326 17.8881 9.45L13.9381 5.5ZM13.9381 1.5C15.9674 1.72544 17.8597 2.63417 19.3044 4.07701C20.749 5.51984 21.6601 7.41101 21.8881 9.44L13.9381 1.5ZM20.8881 17.42V20.42C20.8892 20.6985 20.8322 20.9742 20.7206 21.2293C20.6091 21.4845 20.4454 21.7136 20.2402 21.9019C20.035 22.0901 19.7927 22.2335 19.5289 22.3227C19.265 22.4119 18.9855 22.4451 18.7081 22.42C15.631 22.0856 12.6751 21.0341 10.0781 19.35C7.66195 17.8147 5.61345 15.7662 4.07812 13.35C2.3881 10.7412 1.33636 7.77099 1.00812 4.68C0.983127 4.40347 1.01599 4.12476 1.10462 3.86162C1.19324 3.59849 1.33569 3.35669 1.52288 3.15162C1.71008 2.94655 1.93792 2.78271 2.19191 2.67052C2.44589 2.55833 2.72046 2.50026 2.99812 2.5H5.99812C6.48342 2.49522 6.95391 2.66708 7.32188 2.98353C7.68985 3.29999 7.93019 3.73945 7.99812 4.22C8.12474 5.18007 8.35957 6.12273 8.69812 7.03C8.83266 7.38792 8.86178 7.77691 8.78202 8.15088C8.70227 8.52485 8.51698 8.86811 8.24812 9.14L6.97812 10.41C8.40167 12.9135 10.4746 14.9864 12.9781 16.41L14.2481 15.14C14.52 14.8711 14.8633 14.6858 15.2372 14.6061C15.6112 14.5263 16.0002 14.5555 16.3581 14.69C17.2654 15.0286 18.2081 15.2634 19.1681 15.39C19.6539 15.4585 20.0975 15.7032 20.4147 16.0775C20.7318 16.4518 20.9003 16.9296 20.8881 17.42Z" stroke="#7A9CA5" stroke-width="2" stroke-linecap="round" stroke-linejoin="round"/>
</svg>
